<?xml version="1.0" encoding="utf-8"?>
<!-- Generator: Adobe Illustrator 25.0.0, SVG Export Plug-In . SVG Version: 6.00 Build 0)  -->
<svg version="1.1" id="Layer_1" xmlns="http://www.w3.org/2000/svg" xmlns:xlink="http://www.w3.org/1999/xlink" x="0px" y="0px"
	 viewBox="0 0 1366 156" style="enable-background:new 0 0 1366 156;" xml:space="preserve">
<style type="text/css">
	.st0{fill:none;}
	.st1{fill:#CCB293;}
</style>
<g>
	<path class="st0" d="M0,0"/>
</g>
<path class="st1" d="M1091.5,74.3c0,28.9-9.5,57.8-28.5,81.7H694.9c1.9-2.3,4-4.5,6.1-6.7L848.5,0h220.1
	C1083.9,22.3,1091.5,48.3,1091.5,74.3z"/>
<path class="st1" d="M573.8,0L529,45.4c-51,51.7-134.3,52.2-186,1.2C329.2,32.9,319,17,312.5,0H573.8z"/>
<path class="st1" d="M200.3,0.5L85.1,117.1C61.5,141,31.1,154,0,156V0.5H200.3z"/>
<path class="st1" d="M1366,0v156h-302c0.1-0.1,0.2-0.2,0.3-0.3L1218.1,0H1366z"/>
</svg>
